<svg width="20" height="20" viewBox="0 0 20 20" fill="none" xmlns="http://www.w3.org/2000/svg">
<g clip-path="url(#clip0_87_1095)">
<path fill-rule="evenodd" clip-rule="evenodd" d="M2.14286 0C1.00857 0 0 0.867143 0 2.04286V8.69143C0 9.86857 1.00857 10.7343 2.14286 10.7343H2.97429V7.85714C2.97429 7.22 3.24571 6.62286 3.70714 6.19429C4.16814 5.76906 4.77284 5.53382 5.4 5.53571H14.6C15.2229 5.53571 15.8329 5.76571 16.2929 6.19286C16.7529 6.62286 17.0257 7.22143 17.0257 7.85714V10.7357H17.8571C18.9914 10.7357 20 9.86857 20 8.69286V2.04286C20 0.867143 18.9914 0 17.8571 0H2.14286ZM15.24 10.7357H4.76V7.85714C4.76 7.73571 4.81143 7.60571 4.92429 7.5C5.05489 7.38299 5.22466 7.31927 5.4 7.32143H14.6C14.7748 7.31963 14.944 7.38333 15.0743 7.5C15.1886 7.60571 15.24 7.73571 15.24 7.85714V10.7357ZM6.78571 13.9271C6.78571 13.643 6.67283 13.3705 6.4719 13.1695C6.27097 12.9686 5.99845 12.8557 5.71429 12.8557C5.43013 12.8557 5.1576 12.9686 4.95667 13.1695C4.75574 13.3705 4.64286 13.643 4.64286 13.9271V15.4986C4.64286 15.7448 4.54503 15.981 4.37088 16.1552C4.19674 16.3293 3.96056 16.4271 3.71429 16.4271H3.57143C3.28727 16.4271 3.01475 16.54 2.81381 16.741C2.61288 16.9419 2.5 17.2144 2.5 17.4986C2.5 17.7827 2.61288 18.0553 2.81381 18.2562C3.01475 18.4571 3.28727 18.57 3.57143 18.57H3.71429C4.52888 18.57 5.31011 18.2464 5.88611 17.6704C6.46212 17.0944 6.78571 16.3132 6.78571 15.4986V13.9271ZM14.2857 12.8557C14.0016 12.8557 13.729 12.9686 13.5281 13.1695C13.3272 13.3705 13.2143 13.643 13.2143 13.9271V15.4986C13.2143 16.3132 13.5379 17.0944 14.1139 17.6704C14.6899 18.2464 15.4711 18.57 16.2857 18.57H16.4286C16.7127 18.57 16.9853 18.4571 17.1862 18.2562C17.3871 18.0553 17.5 17.7827 17.5 17.4986C17.5 17.2144 17.3871 16.9419 17.1862 16.741C16.9853 16.54 16.7127 16.4271 16.4286 16.4271H16.2857C16.0394 16.4271 15.8033 16.3293 15.6291 16.1552C15.455 15.981 15.3571 15.7448 15.3571 15.4986V13.9271C15.3571 13.643 15.2443 13.3705 15.0433 13.1695C14.8424 12.9686 14.5699 12.8557 14.2857 12.8557ZM11.0714 13.9271C11.0714 13.643 10.9585 13.3705 10.7576 13.1695C10.5567 12.9686 10.2842 12.8557 10 12.8557C9.71584 12.8557 9.44332 12.9686 9.24239 13.1695C9.04145 13.3705 8.92857 13.643 8.92857 13.9271V18.9271C8.92857 19.2113 9.04145 19.4838 9.24239 19.6848C9.44332 19.8857 9.71584 19.9986 10 19.9986C10.2842 19.9986 10.5567 19.8857 10.7576 19.6848C10.9585 19.4838 11.0714 19.2113 11.0714 18.9271V13.9271Z" fill="#229935"/>
</g>
<defs>
<clipPath id="clip0_87_1095">
<rect width="20" height="20" fill="white"/>
</clipPath>
</defs>
</svg>
