<svg width="20" height="19" viewBox="0 0 20 19" fill="none" xmlns="http://www.w3.org/2000/svg">
<path d="M10 16V18V16ZM7 1H14.459C15.1691 1.00005 15.8562 1.25202 16.3981 1.71107C16.9399 2.17013 17.3013 2.80651 17.418 3.507L17.995 6.971L18.805 11.836C18.8288 11.9791 18.8212 12.1257 18.7826 12.2656C18.7441 12.4054 18.6756 12.5352 18.5819 12.646C18.4882 12.7567 18.3715 12.8457 18.2399 12.9069C18.1084 12.968 17.9651 12.9998 17.82 13H1C1 11.1435 1.7375 9.36301 3.05025 8.05025C4.36301 6.7375 6.14348 6 8 6H17.8M6 16L5 18L6 16ZM14 16L15 18L14 16Z" fill="#229935"/>
<path d="M10 16V18M7 1H14.459C15.1691 1.00005 15.8562 1.25202 16.3981 1.71107C16.9399 2.17013 17.3013 2.80651 17.418 3.507L17.995 6.971L18.805 11.836C18.8288 11.9791 18.8212 12.1257 18.7826 12.2656C18.7441 12.4054 18.6756 12.5352 18.5819 12.646C18.4882 12.7567 18.3715 12.8457 18.2399 12.9069C18.1084 12.968 17.9651 12.9998 17.82 13H1C1 11.1435 1.7375 9.36301 3.05025 8.05025C4.36301 6.7375 6.14348 6 8 6H17.8M6 16L5 18M14 16L15 18" stroke="#229935" stroke-width="2" stroke-linecap="round" stroke-linejoin="round"/>
</svg>
