<svg width="16" height="20" viewBox="0 0 16 20" fill="none" xmlns="http://www.w3.org/2000/svg">
<path d="M14 4V2H15C15.55 2 16 1.55 16 1C16 0.45 15.55 0 15 0H2C0.9 0 0 0.9 0 2V18C0 19.1 0.9 20 2 20H15C15.55 20 16 19.55 16 19C16 18.45 15.55 18 15 18H11.97C12.5985 17.5393 13.1097 16.9371 13.4624 16.2423C13.815 15.5474 13.9992 14.7793 14 14V11C14 9.9 13.1 9 12 9H6C4.9 9 4 9.9 4 11V14C4 15.64 4.81 17.09 6.03 18H2V2H4V4C4 4.55 4.45 5 5 5H13C13.55 5 14 4.55 14 4Z" fill="#229935"/>
<path d="M9 8C9.55228 8 10 7.55228 10 7C10 6.44772 9.55228 6 9 6C8.44772 6 8 6.44772 8 7C8 7.55228 8.44772 8 9 8Z" fill="#229935"/>
</svg>
