<svg width="24" height="10" viewBox="0 0 24 10" fill="none" xmlns="http://www.w3.org/2000/svg">
<path d="M0.75 0.5C0.551088 0.5 0.360322 0.579018 0.21967 0.71967C0.0790176 0.860322 0 1.05109 0 1.25L0 8.75C0 8.94891 0.0790176 9.13968 0.21967 9.28033C0.360322 9.42098 0.551088 9.5 0.75 9.5H23.25C23.4489 9.5 23.6397 9.42098 23.7803 9.28033C23.921 9.13968 24 8.94891 24 8.75V1.25C24 1.05109 23.921 0.860322 23.7803 0.71967C23.6397 0.579018 23.4489 0.5 23.25 0.5H0.75ZM3.375 2.75H20.625C20.7245 2.75 20.8198 2.78951 20.8902 2.85983C20.9605 2.93016 21 3.02554 21 3.125V4.625C21 4.72446 20.9605 4.81984 20.8902 4.89017C20.8198 4.96049 20.7245 5 20.625 5H3.375C3.27554 5 3.18016 4.96049 3.10984 4.89017C3.03951 4.81984 3 4.72446 3 4.625V3.125C3 3.02554 3.03951 2.93016 3.10984 2.85983C3.18016 2.78951 3.27554 2.75 3.375 2.75Z" fill="#229935"/>
</svg>
