<svg width="18" height="20" viewBox="0 0 18 20" fill="none" xmlns="http://www.w3.org/2000/svg">
<path d="M6 20C5.45 20 4.97933 19.8043 4.588 19.413C4.19667 19.0217 4.00067 18.5507 4 18V14H2.4C1.73333 14 1.16667 13.7667 0.7 13.3C0.233333 12.8333 0 12.2667 0 11.6C0 11.1167 0.133333 10.671 0.4 10.263C0.666667 9.855 1.01667 9.55067 1.45 9.35L8 6.45V5.8C7.4 5.58333 6.91667 5.221 6.55 4.713C6.18333 4.205 6 3.634 6 3C6 2.16667 6.29167 1.45833 6.875 0.875C7.45833 0.291667 8.16667 0 9 0C9.6 0 10.15 0.166667 10.65 0.5C11.15 0.833333 11.5167 1.26667 11.75 1.8L11.85 2.225C11.85 2.50833 11.754 2.746 11.562 2.938C11.37 3.13 11.1327 3.22567 10.85 3.225C10.6333 3.225 10.446 3.16667 10.288 3.05C10.13 2.93333 10.009 2.78333 9.925 2.6C9.841 2.41667 9.716 2.271 9.55 2.163C9.384 2.055 9.20067 2.00067 9 2C8.71667 2 8.47933 2.096 8.288 2.288C8.09667 2.48 8.00067 2.71733 8 3C7.99933 3.28267 8.09533 3.52033 8.288 3.713C8.48067 3.90567 8.718 4.00133 9 4C9.282 3.99867 9.51967 4.09467 9.713 4.288C9.90633 4.48133 10.002 4.71867 10 5V6.45L16.55 9.35C16.9833 9.55 17.3333 9.85433 17.6 10.263C17.8667 10.6717 18 11.1173 18 11.6C18 12.2667 17.7667 12.8333 17.3 13.3C16.8333 13.7667 16.2667 14 15.6 14H14V18C14 18.55 13.8043 19.021 13.413 19.413C13.0217 19.805 12.5507 20.0007 12 20H6ZM2.4 12H4.275C4.45833 11.7 4.7 11.4583 5 11.275C5.3 11.0917 5.63333 11 6 11H12C12.3667 11 12.7 11.0917 13 11.275C13.3 11.4583 13.5417 11.7 13.725 12H15.6C15.7167 12 15.8127 11.9583 15.888 11.875C15.9633 11.7917 16.0007 11.6833 16 11.55C16 11.4667 15.9793 11.3957 15.938 11.337C15.8967 11.2783 15.834 11.2327 15.75 11.2L9 8.2L2.25 11.2C2.16667 11.2333 2.10433 11.2793 2.063 11.338C2.02167 11.3967 2.00067 11.4673 2 11.55C2 11.6833 2.03767 11.7917 2.113 11.875C2.18833 11.9583 2.284 12 2.4 12Z" fill="#229935"/>
</svg>
