<svg width="19" height="20" viewBox="0 0 19 20" fill="none" xmlns="http://www.w3.org/2000/svg">
<path d="M9 0.5C9.38522 0.500191 9.75559 0.648576 10.0344 0.914409C10.3132 1.18024 10.479 1.54314 10.4975 1.92791C10.516 2.31269 10.3858 2.68983 10.1338 2.9812C9.88184 3.27257 9.52742 3.45583 9.144 3.493L9 3.5H4C3.88297 3.49996 3.76964 3.54097 3.67974 3.61589C3.58984 3.69081 3.52906 3.79489 3.508 3.91L3.5 4V16C3.49996 16.117 3.54097 16.2304 3.61589 16.3203C3.69081 16.4102 3.79489 16.4709 3.91 16.492L4 16.5H8.5C8.88522 16.5002 9.25559 16.6486 9.53439 16.9144C9.81318 17.1802 9.97901 17.5431 9.99752 17.9279C10.016 18.3127 9.88581 18.6898 9.63382 18.9812C9.38184 19.2726 9.02742 19.4558 8.644 19.493L8.5 19.5H4C3.10493 19.5001 2.24385 19.1572 1.59379 18.5419C0.943735 17.9267 0.554101 17.0857 0.505 16.192L0.5 16V4C0.499931 3.10493 0.84278 2.24385 1.45806 1.59379C2.07334 0.943735 2.91428 0.554101 3.808 0.505L4 0.5H9ZM10.94 6.11C11.2118 5.83723 11.5781 5.67943 11.963 5.66927C12.3479 5.6591 12.722 5.79736 13.0078 6.0554C13.2936 6.31344 13.4692 6.67151 13.4983 7.05547C13.5274 7.43942 13.4077 7.81986 13.164 8.118L13.061 8.232L12.793 8.5H17C17.3852 8.50019 17.7556 8.64858 18.0344 8.91441C18.3132 9.18024 18.479 9.54314 18.4975 9.92791C18.516 10.3127 18.3858 10.6898 18.1338 10.9812C17.8818 11.2726 17.5274 11.4558 17.144 11.493L17 11.5H12.793L13.061 11.768C13.3338 12.0398 13.4916 12.4061 13.5017 12.791C13.5119 13.1759 13.3736 13.55 13.1156 13.8358C12.8576 14.1216 12.4995 14.2972 12.1155 14.3263C11.7316 14.3554 11.3511 14.2357 11.053 13.992L10.939 13.889L8.111 11.061C7.84827 10.7984 7.69229 10.4478 7.67326 10.0768C7.65423 9.70587 7.77351 9.34106 8.008 9.053L8.111 8.939L10.939 6.111L10.94 6.11Z" fill="#229935"/>
</svg>
