<svg width="20" height="17" viewBox="0 0 20 17" fill="none" xmlns="http://www.w3.org/2000/svg">
<path d="M10 0C10.245 3.23106e-05 10.4814 0.0899562 10.6644 0.252715C10.8475 0.415475 10.9644 0.639749 10.993 0.883L11 1V2H12.5C14.4678 2.0005 16.3565 2.77431 17.759 4.15458C19.1614 5.53485 19.9653 7.411 19.9972 9.37848C20.029 11.346 19.2864 13.2472 17.9294 14.6722C16.5724 16.0971 14.7097 16.9317 12.743 16.996L12.5 17H7.50005C5.5323 16.9995 3.64357 16.2257 2.24111 14.8454C0.838653 13.4652 0.0348206 11.589 0.00293882 9.62152C-0.028943 7.65403 0.71368 5.75282 2.07068 4.32784C3.42768 2.90285 5.29035 2.06826 7.25705 2.004L7.50005 2H9.00005V1C9.00005 0.734784 9.1054 0.48043 9.29294 0.292893C9.48048 0.105357 9.73483 0 10 0ZM13.5 7C13.2348 7 12.9805 7.10536 12.7929 7.29289C12.6054 7.48043 12.5 7.73478 12.5 8V8.5H12C11.7348 8.5 11.4805 8.60536 11.2929 8.79289C11.1054 8.98043 11 9.23478 11 9.5C11 9.76522 11.1054 10.0196 11.2929 10.2071C11.4805 10.3946 11.7348 10.5 12 10.5H12.5V11C12.5 11.2652 12.6054 11.5196 12.7929 11.7071C12.9805 11.8946 13.2348 12 13.5 12C13.7653 12 14.0196 11.8946 14.2072 11.7071C14.3947 11.5196 14.5 11.2652 14.5 11V10.5H15C15.2653 10.5 15.5196 10.3946 15.7072 10.2071C15.8947 10.0196 16 9.76522 16 9.5C16 9.23478 15.8947 8.98043 15.7072 8.79289C15.5196 8.60536 15.2653 8.5 15 8.5H14.5V8C14.5 7.73478 14.3947 7.48043 14.2072 7.29289C14.0196 7.10536 13.7653 7 13.5 7ZM6.50005 7C5.837 7 5.20112 7.26339 4.73228 7.73223C4.26344 8.20107 4.00005 8.83696 4.00005 9.5C4.00005 10.163 4.26344 10.7989 4.73228 11.2678C5.20112 11.7366 5.837 12 6.50005 12C7.16309 12 7.79897 11.7366 8.26781 11.2678C8.73665 10.7989 9.00005 10.163 9.00005 9.5C9.00005 8.83696 8.73665 8.20107 8.26781 7.73223C7.79897 7.26339 7.16309 7 6.50005 7ZM6.50005 9C6.63265 9 6.75983 9.05268 6.8536 9.14645C6.94737 9.24021 7.00005 9.36739 7.00005 9.5C7.00005 9.63261 6.94737 9.75979 6.8536 9.85355C6.75983 9.94732 6.63265 10 6.50005 10C6.36744 10 6.24026 9.94732 6.14649 9.85355C6.05272 9.75979 6.00005 9.63261 6.00005 9.5C6.00005 9.36739 6.05272 9.24021 6.14649 9.14645C6.24026 9.05268 6.36744 9 6.50005 9Z" fill="#229935"/>
</svg>
