<svg width="17" height="20" viewBox="0 0 17 20" fill="none" xmlns="http://www.w3.org/2000/svg">
<path d="M15.5 19C16.3284 19 17 18.3284 17 17.5C17 16.6716 16.3284 16 15.5 16C14.6716 16 14 16.6716 14 17.5C14 18.3284 14.6716 19 15.5 19Z" fill="#229935"/>
<path d="M7 16.03V6.98L11.22 4.83C11.95 4.46 11.95 3.4 11.21 3.04L6.45 0.710003C5.78 0.380003 5 0.860002 5 1.6V17C5 17.55 4.55 18 4 18C3.45 18 3 17.55 3 17V16.27C1.21 16.62 0 17.26 0 18C0 19.1 2.69 20 6 20C9.31 20 12 19.1 12 18C12 17.01 9.84 16.19 7 16.03Z" fill="#229935"/>
</svg>
