<svg width="21" height="22" viewBox="0 0 21 22" fill="none" xmlns="http://www.w3.org/2000/svg">
<path d="M15.6331 17.3706L18.5938 10.8503C19.5377 10.0599 20.2157 8.99829 20.5357 7.80944C20.8556 6.62059 20.8022 5.36208 20.3825 4.20466C19.9628 3.04724 19.1972 2.04695 18.1896 1.33949C17.182 0.632037 15.9812 0.251671 14.75 0.25C14.7085 0.250175 14.6672 0.253623 14.6262 0.260313L1.75344 2.40625C1.40323 2.46461 1.08507 2.6453 0.855553 2.91619C0.62604 3.18707 0.500053 3.53058 0.5 3.88562V8.61438C0.500053 8.96942 0.62604 9.31293 0.855553 9.58381C1.08507 9.8547 1.40323 10.0354 1.75344 10.0938L11 11.635V16.75C11 17.1478 11.158 17.5294 11.4393 17.8107C11.7206 18.092 12.1022 18.25 12.5 18.25C12.5 19.2446 12.8951 20.1984 13.5983 20.9016C14.3016 21.6049 15.2554 22 16.25 22H17.75C17.9489 22 18.1397 21.921 18.2803 21.7803C18.421 21.6397 18.5 21.4489 18.5 21.25C18.5 21.0511 18.421 20.8603 18.2803 20.7197C18.1397 20.579 17.9489 20.5 17.75 20.5H16.25C15.6533 20.5 15.081 20.2629 14.659 19.841C14.2371 19.419 14 18.8467 14 18.25H14.2672C14.5553 18.2501 14.8373 18.1672 15.0795 18.0112C15.3217 17.8553 15.5139 17.6329 15.6331 17.3706ZM17 6.25C17 6.69501 16.868 7.13002 16.6208 7.50003C16.3736 7.87004 16.0222 8.15843 15.611 8.32873C15.1999 8.49903 14.7475 8.54358 14.311 8.45677C13.8746 8.36995 13.4737 8.15566 13.159 7.84099C12.8443 7.52632 12.63 7.12541 12.5432 6.68895C12.4564 6.2525 12.501 5.8001 12.6713 5.38896C12.8416 4.97783 13.13 4.62643 13.5 4.37919C13.87 4.13196 14.305 4 14.75 4C15.3467 4 15.919 4.23705 16.341 4.65901C16.7629 5.08097 17 5.65326 17 6.25ZM14.6262 12.2397C14.6672 12.2464 14.7085 12.2498 14.75 12.25C15.3153 12.2498 15.8778 12.1697 16.4206 12.0119L14.2644 16.75H12.5V11.8853L14.6262 12.2397Z" fill="#229935"/>
</svg>
