<svg width="18" height="20" viewBox="0 0 18 20" fill="none" xmlns="http://www.w3.org/2000/svg">
<path d="M7 4C8.10457 4 9 3.10457 9 2C9 0.89543 8.10457 0 7 0C5.89543 0 5 0.89543 5 2C5 3.10457 5.89543 4 7 4Z" fill="#229935"/>
<path d="M14.9797 12.804C14.9344 12.5774 14.812 12.3735 14.6333 12.2269C14.4547 12.0803 14.2308 12.0001 13.9997 12H9.86668L9.43768 9H13.9997V7H9.15268L8.98968 5.858C8.95551 5.6198 8.83659 5.40191 8.65474 5.24431C8.4729 5.08671 8.24032 4.99997 7.99968 5H6.99968C6.8565 5.00047 6.71508 5.0316 6.58493 5.09128C6.45478 5.15096 6.33892 5.23781 6.24513 5.346C6.15134 5.45419 6.08181 5.5812 6.04119 5.7185C6.00058 5.8558 5.98984 6.0002 6.00968 6.142L6.88668 12.284C6.95679 12.7596 7.19514 13.1943 7.55844 13.5092C7.92175 13.8241 8.38592 13.9982 8.86668 14H13.1797L14.0187 18.196C14.1127 18.663 14.5227 19 14.9997 19H17.9997V17H15.8187L14.9797 12.804Z" fill="#229935"/>
<path d="M10.51 15.5C9.771 16.976 8.26 18 6.5 18C5.30693 17.9987 4.16311 17.5241 3.31948 16.6805C2.47585 15.8369 2.00132 14.6931 2 13.5C2.00168 12.604 2.27064 11.7288 2.77246 10.9865C3.27428 10.2442 3.98615 9.66848 4.817 9.333L4.528 7.308C1.905 8.145 0 10.604 0 13.5C0 17.084 2.916 20 6.5 20C7.6148 19.9984 8.71045 19.7101 9.68156 19.1626C10.6527 18.6151 11.4666 17.827 12.045 16.874L11.771 15.5H10.51Z" fill="#229935"/>
</svg>
