<svg width="21" height="20" viewBox="0 0 21 20" fill="none" xmlns="http://www.w3.org/2000/svg">
<path fill-rule="evenodd" clip-rule="evenodd" d="M17.0635 15.829C17.3638 15.5901 17.7443 15.4753 18.1267 15.5084C18.509 15.5415 18.8642 15.7199 19.119 16.0069C19.3738 16.2938 19.5089 16.6676 19.4966 17.0512C19.4842 17.4348 19.3253 17.799 19.0525 18.069L18.9375 18.171L17.5795 19.258C16.0645 20.47 14.3445 20.032 12.8855 19.059C12.7971 19.0001 12.6923 18.9709 12.5862 18.9756C12.4801 18.9803 12.3783 19.0186 12.2955 19.085C11.6483 19.6155 10.8373 19.9055 10.0005 19.9055C9.16362 19.9055 8.35263 19.6155 7.70546 19.085C7.62262 19.0186 7.52079 18.9803 7.41471 18.9756C7.30863 18.9709 7.20382 19.0001 7.11546 19.059C5.71046 19.996 4.06346 20.437 2.59046 19.386L2.42146 19.258L1.06346 18.171C0.762901 17.9308 0.566115 17.5844 0.513785 17.2032C0.461456 16.822 0.557584 16.4353 0.782297 16.1231C1.00701 15.8108 1.34313 15.5968 1.72116 15.5253C2.0992 15.4538 2.49024 15.5303 2.81346 15.739L2.93746 15.829L4.29546 16.915C4.36603 16.9716 4.45064 17.0081 4.54028 17.0204C4.62992 17.0327 4.72123 17.0205 4.80446 16.985L4.88446 16.941L5.45146 16.563C6.78346 15.675 8.46646 15.852 9.68846 16.829C9.77706 16.8998 9.88708 16.9383 10.0005 16.9383C10.1138 16.9383 10.2239 16.8998 10.3125 16.829C11.4825 15.894 13.0725 15.692 14.3735 16.453L14.5495 16.563L15.1155 16.941C15.1907 16.9912 15.2782 17.02 15.3685 17.0244C15.4588 17.0288 15.5487 17.0086 15.6285 16.966L15.7055 16.916L17.0635 15.829ZM16.5005 0.5C17.5613 0.5 18.5787 0.921427 19.3289 1.67157C20.079 2.42172 20.5005 3.43913 20.5005 4.5C20.5003 4.88522 20.3519 5.25559 20.0861 5.53439C19.8202 5.81318 19.4573 5.97901 19.0725 5.99752C18.6878 6.01604 18.3106 5.88581 18.0193 5.63382C17.7279 5.38184 17.5446 5.02742 17.5075 4.644L17.5005 4.5C17.5005 4.23478 17.3951 3.98043 17.2076 3.79289C17.02 3.60536 16.7657 3.5 16.5005 3.5C16.2352 3.5 15.9809 3.60536 15.7934 3.79289C15.6058 3.98043 15.5005 4.23478 15.5005 4.5V13C15.5005 13.014 15.5205 13.01 15.5485 13L15.6425 12.954L15.7055 12.915L17.0635 11.829C17.3748 11.5893 17.7678 11.4813 18.158 11.5283C18.5481 11.5753 18.9042 11.7736 19.1497 12.0804C19.3952 12.3872 19.5105 12.7781 19.4708 13.1691C19.4312 13.56 19.2396 13.9198 18.9375 14.171L17.5795 15.258C16.9994 15.722 16.2868 15.9895 15.5447 16.0216C14.8026 16.0538 14.0695 15.8491 13.4515 15.437L12.8855 15.059C12.7971 15.0001 12.6923 14.9709 12.5862 14.9756C12.4801 14.9803 12.3783 15.0186 12.2955 15.085C10.9885 16.13 9.15346 16.244 7.81446 15.172C7.49446 14.916 7.22546 14.995 6.95746 15.159L6.79646 15.265L6.63246 15.38C6.60579 15.4 6.57813 15.419 6.54946 15.437C5.93133 15.8489 5.19817 16.0535 4.45607 16.0212C3.71396 15.9888 3.00139 15.7212 2.42146 15.257L1.06346 14.171C0.905503 14.0494 0.77337 13.8975 0.674784 13.7243C0.576198 13.551 0.513138 13.3598 0.489289 13.1619C0.46544 12.964 0.48128 12.7633 0.535885 12.5716C0.590489 12.3798 0.682762 12.2009 0.80731 12.0453C0.931858 11.8896 1.08618 11.7604 1.26126 11.665C1.43635 11.5697 1.62867 11.5102 1.827 11.4901C2.02533 11.47 2.22568 11.4896 2.41635 11.5478C2.60701 11.6059 2.78417 11.7016 2.93746 11.829L3.50046 12.279V4.5C3.50046 3.97471 3.60392 3.45457 3.80494 2.96927C4.00596 2.48396 4.3006 2.04301 4.67203 1.67157C5.04347 1.30014 5.48443 1.0055 5.96973 0.804482C6.45503 0.603463 6.97517 0.5 7.50046 0.5C8.02575 0.5 8.54589 0.603463 9.0312 0.804482C9.5165 1.0055 9.95745 1.30014 10.3289 1.67157C10.7003 2.04301 10.995 2.48396 11.196 2.96927C11.397 3.45457 11.5005 3.97471 11.5005 4.5C11.5003 4.88522 11.3519 5.25559 11.0861 5.53439C10.8202 5.81318 10.4573 5.97901 10.0725 5.99752C9.68778 6.01604 9.31063 5.88581 9.01926 5.63382C8.72789 5.38184 8.54463 5.02742 8.50746 4.644L8.50046 4.5C8.50046 4.23478 8.3951 3.98043 8.20757 3.79289C8.02003 3.60536 7.76568 3.5 7.50046 3.5C7.23525 3.5 6.98089 3.60536 6.79335 3.79289C6.60582 3.98043 6.50046 4.23478 6.50046 4.5V7.5H12.5005V4.5C12.5005 3.43913 12.9219 2.42172 13.672 1.67157C14.4222 0.921427 15.4396 0.5 16.5005 0.5ZM12.5005 10.5H6.50046V12.09C7.63946 11.79 8.78346 12.105 9.68846 12.83C9.77706 12.9008 9.88708 12.9393 10.0005 12.9393C10.1138 12.9393 10.2239 12.9008 10.3125 12.83C10.9455 12.323 11.6815 12.002 12.5005 11.977V10.5Z" fill="#229935"/>
</svg>
