<svg width="20" height="20" viewBox="0 0 20 20" fill="none" xmlns="http://www.w3.org/2000/svg">
<path d="M18 0H2C0.9 0 0 0.9 0 2V18C0 19.1 0.9 20 2 20H18C19.1 20 20 19.1 20 18V2C20 0.9 19.1 0 18 0ZM9 8.3C9 9.23 8.36 10.01 7.5 10.23V17H6V10.23C5.14 10.01 4.5 9.23 4.5 8.3V4.5C4.5 4.22 4.72 4 5 4C5.28 4 5.5 4.22 5.5 4.5V7H6.25V4.5C6.25 4.22 6.47 4 6.75 4C7.03 4 7.25 4.22 7.25 4.5V7H8V4.5C8 4.22 8.23 4 8.5 4C8.78 4 9 4.22 9 4.5V8.3ZM13.58 10.59L13.5 10.62V17H12V10.62L11.92 10.58C10.95 10.11 10.25 8.88 10.25 7.4C10.25 5.52 11.38 4 12.75 4C14.13 4 15.25 5.53 15.25 7.41C15.25 8.89 14.55 10.12 13.58 10.59Z" fill="#229935"/>
</svg>
