<svg width="18" height="18" viewBox="0 0 18 18" fill="none" xmlns="http://www.w3.org/2000/svg">
<path fill-rule="evenodd" clip-rule="evenodd" d="M13.9999 1.00268e-07C14.5044 -0.000159579 14.9904 0.190406 15.3604 0.533497C15.7304 0.876587 15.957 1.34684 15.9949 1.85L15.9999 2V16H16.9999C17.2547 16.0003 17.4999 16.0979 17.6852 16.2728C17.8706 16.4478 17.9821 16.687 17.997 16.9414C18.012 17.1958 17.9292 17.4464 17.7656 17.6418C17.602 17.8373 17.37 17.9629 17.1169 17.993L16.9999 18H0.999869C0.744989 17.9997 0.499837 17.9021 0.3145 17.7272C0.129164 17.5522 0.0176337 17.313 0.0026966 17.0586C-0.0122405 16.8042 0.0705433 16.5536 0.234134 16.3582C0.397724 16.1627 0.629773 16.0371 0.882869 16.007L0.999869 16H1.99987V2C1.99971 1.49542 2.19027 1.00943 2.53337 0.639452C2.87646 0.269471 3.34671 0.0428434 3.84987 0.00500021L3.99987 1.00268e-07H13.9999ZM11.4999 8C11.3029 8 11.1078 8.0388 10.9258 8.11418C10.7439 8.18956 10.5785 8.30005 10.4392 8.43934C10.2999 8.57863 10.1894 8.74399 10.114 8.92597C10.0387 9.10796 9.99987 9.30302 9.99987 9.5C9.99987 9.69698 10.0387 9.89204 10.114 10.074C10.1894 10.256 10.2999 10.4214 10.4392 10.5607C10.5785 10.6999 10.7439 10.8104 10.9258 10.8858C11.1078 10.9612 11.3029 11 11.4999 11C11.8977 11 12.2792 10.842 12.5605 10.5607C12.8418 10.2794 12.9999 9.89782 12.9999 9.5C12.9999 9.10218 12.8418 8.72064 12.5605 8.43934C12.2792 8.15804 11.8977 8 11.4999 8Z" fill="#229935"/>
</svg>
