<svg width="15" height="15" viewBox="0 0 15 15" fill="none" xmlns="http://www.w3.org/2000/svg">
<path d="M12.353 2.63789L13.9896 1M12.3661 12.3741L13.9896 13.9995M2.67584 12.323L1 14.0002M2.63656 2.63914L1 1.00062M12.0931 12.1015C11.4892 12.7042 10.7727 13.1821 9.98438 13.5077C9.19604 13.8334 8.35134 14.0004 7.49849 13.9994C6.64564 13.9983 5.80136 13.8291 5.01384 13.5015C4.22632 13.1739 3.51099 12.6942 2.90869 12.0899C2.3064 11.4856 1.82893 10.7685 1.50355 9.97952C1.17817 9.19054 1.01125 8.34515 1.01232 7.49161C1.01339 6.63807 1.18243 5.79309 1.50979 5.00493C1.83715 4.21678 2.31642 3.50087 2.92023 2.89808C4.13968 1.6807 5.7924 0.997995 7.5148 1.00016C9.2372 1.00232 10.8882 1.68918 12.1046 2.90962C13.321 4.13007 14.0031 5.78413 14.001 7.50793C13.9988 9.23173 13.3125 10.8841 12.0931 12.1015Z" stroke="#229935" stroke-width="2" stroke-linecap="round" stroke-linejoin="round"/>
<path d="M7.43066 7.49977H7.56034" stroke="#229935" stroke-width="3" stroke-linecap="round" stroke-linejoin="round"/>
</svg>
