<svg width="17" height="17" viewBox="0 0 17 17" fill="none" xmlns="http://www.w3.org/2000/svg">
<path d="M16.5 8.5C16.5 12.9183 12.9183 16.5 8.5 16.5C4.08171 16.5 0.5 12.9183 0.5 8.5C0.5 4.08171 4.08171 0.5 8.5 0.5C12.9183 0.5 16.5 4.08171 16.5 8.5ZM13.5097 12.2971C14.3396 11.2054 14.7879 9.87133 14.7857 8.5C14.7857 5.02857 11.9714 2.21429 8.5 2.21429C7.07314 2.21429 5.75714 2.68971 4.70286 3.49029L9.71143 8.5H11.7851C11.823 8.5 11.8594 8.51505 11.8862 8.54184C11.9129 8.56863 11.928 8.60497 11.928 8.64286V10.0714C11.928 10.1093 11.9129 10.1457 11.8862 10.1724C11.8594 10.1992 11.823 10.2143 11.7851 10.2143H11.4257L13.5097 12.2971ZM12.2971 13.5097L9.00286 10.2143H3.92857C3.77702 10.2143 3.63167 10.1541 3.52451 10.0469C3.41735 9.93976 3.35714 9.79441 3.35714 9.64286V9.07143C3.35714 8.91988 3.41735 8.77453 3.52451 8.66737C3.63167 8.5602 3.77702 8.5 3.92857 8.5H7.288L3.49029 4.70286C2.66042 5.79459 2.21211 7.12867 2.21429 8.5C2.21429 11.9714 5.02857 14.7857 8.5 14.7857C9.92686 14.7857 11.2429 14.3103 12.2971 13.5097Z" fill="#229935"/>
</svg>
