<svg width="20" height="20" viewBox="0 0 20 20" fill="none" xmlns="http://www.w3.org/2000/svg">
<path d="M1 15L5 19M5 15L1 19M15 1L19 5M19 1L15 5M9 17H14.5C15.4283 17 16.3185 16.6313 16.9749 15.9749C17.6313 15.3185 18 14.4283 18 13.5C18 12.5717 17.6313 11.6815 16.9749 11.0251C16.3185 10.3687 15.4283 10 14.5 10H6.5C5.57174 10 4.6815 9.63125 4.02513 8.97487C3.36875 8.3185 3 7.42826 3 6.5C3 5.57174 3.36875 4.6815 4.02513 4.02513C4.6815 3.36875 5.57174 3 6.5 3H11" stroke="#229935" stroke-width="2" stroke-linecap="round" stroke-linejoin="round"/>
</svg>
