<svg width="21" height="21" viewBox="0 0 21 21" fill="none" xmlns="http://www.w3.org/2000/svg">
<path d="M8.00488 19H4.00488V21H2.00488V19H1.00488C0.739666 19 0.485312 18.8946 0.297776 18.7071C0.11024 18.5196 0.00488281 18.2652 0.00488281 18V2.99998C0.00488281 2.73476 0.11024 2.48041 0.297776 2.29287C0.485312 2.10534 0.739666 1.99998 1.00488 1.99998H8.00488V0.58998C8.00492 0.5174 8.02075 0.445698 8.05129 0.379854C8.08182 0.31401 8.12632 0.255603 8.18171 0.208691C8.23709 0.161779 8.30202 0.127486 8.37199 0.108195C8.44196 0.0889037 8.51529 0.0850767 8.58688 0.0969798L19.1699 1.85998C19.4034 1.8988 19.6155 2.01919 19.7686 2.19974C19.9217 2.38028 20.0058 2.60927 20.0059 2.84598V4.99998H21.0059V6.99998H20.0059V14H21.0059V16H20.0059V18.153C20.0058 18.3897 19.9217 18.6187 19.7686 18.7992C19.6155 18.9798 19.4034 19.1002 19.1699 19.139L18.0059 19.333V21H16.0059V19.666L8.58788 20.903C8.51629 20.9149 8.44296 20.9111 8.37299 20.8918C8.30302 20.8725 8.23809 20.8382 8.18271 20.7913C8.12733 20.7444 8.08282 20.6859 8.05229 20.6201C8.02175 20.5543 8.00592 20.4826 8.00588 20.41L8.00488 19ZM10.0049 18.639L18.0049 17.305V3.69398L10.0049 2.36098V18.639ZM14.5049 12.999C13.6769 12.999 13.0049 11.88 13.0049 10.499C13.0049 9.11898 13.6769 7.99898 14.5049 7.99898C15.3329 7.99898 16.0049 9.11898 16.0049 10.499C16.0049 11.88 15.3329 12.999 14.5049 12.999Z" fill="#229935"/>
</svg>
