<svg width="20" height="20" viewBox="0 0 20 20" fill="none" xmlns="http://www.w3.org/2000/svg">
<path d="M2 20C1.45 20 0.979333 19.8043 0.588 19.413C0.196667 19.0217 0.000666667 18.5507 0 18V2C0 1.45 0.196 0.979333 0.588 0.588C0.98 0.196667 1.45067 0.000666667 2 0H18C18.55 0 19.021 0.196 19.413 0.588C19.805 0.98 20.0007 1.45067 20 2V18C20 18.55 19.8043 19.021 19.413 19.413C19.0217 19.805 18.5507 20.0007 18 20H2ZM2 14V18H4V16H3.5C3.36667 16 3.25 15.95 3.15 15.85C3.05 15.75 3 15.6333 3 15.5V14H2ZM2 12H3C3 11.7167 3.096 11.4793 3.288 11.288C3.48 11.0967 3.71733 11.0007 4 11V8.5C4 8.08333 4.146 7.72933 4.438 7.438C4.73 7.14667 5.084 7.00067 5.5 7H7.5C7.91667 7 8.271 7.146 8.563 7.438C8.855 7.73 9.00067 8.084 9 8.5V11C9.28333 11 9.521 11.096 9.713 11.288C9.905 11.48 10.0007 11.7173 10 12H18V2H2V12ZM4.5 14.5H8.5V12.5H4.5V14.5ZM6.5 6C6.08333 6 5.72933 5.85433 5.438 5.563C5.14667 5.27167 5.00067 4.91733 5 4.5C4.99933 4.08267 5.14533 3.72867 5.438 3.438C5.73067 3.14733 6.08467 3.00133 6.5 3C6.91533 2.99867 7.26967 3.14467 7.563 3.438C7.85633 3.73133 8.002 4.08533 8 4.5C7.998 4.91467 7.85233 5.269 7.563 5.563C7.27367 5.857 6.91933 6.00267 6.5 6ZM6 18H7V16H6V18ZM9 18H18V14H10V15.5C10 15.6333 9.95 15.75 9.85 15.85C9.75 15.95 9.63333 16 9.5 16H9V18ZM9.75 5.975C9.5 5.65833 9.31267 5.34167 9.188 5.025C9.06333 4.70833 9.00067 4.38333 9 4.05V3.75C9.01667 3.55 9.096 3.375 9.238 3.225C9.38 3.075 9.55067 3 9.75 3C9.96667 3 10.15 3.07067 10.3 3.212C10.45 3.35333 10.5167 3.53267 10.5 3.75V4.05C10.5 4.23333 10.5377 4.41233 10.613 4.587C10.6883 4.76167 10.8173 4.94933 11 5.15C11.3 5.51667 11.5167 5.86267 11.65 6.188C11.7833 6.51333 11.85 6.85067 11.85 7.2C11.85 7.41667 11.775 7.60433 11.625 7.763C11.475 7.92167 11.2917 8.00067 11.075 8C10.8583 7.99933 10.6793 7.92 10.538 7.762C10.3967 7.604 10.3257 7.41667 10.325 7.2C10.325 7 10.2877 6.81667 10.213 6.65C10.1383 6.48333 9.984 6.25833 9.75 5.975ZM12.25 5.975C12 5.65833 11.8127 5.34167 11.688 5.025C11.5633 4.70833 11.5007 4.38333 11.5 4.05V3.75C11.5167 3.55 11.596 3.375 11.738 3.225C11.88 3.075 12.0507 3 12.25 3C12.4667 3 12.65 3.071 12.8 3.213C12.95 3.355 13.0167 3.534 13 3.75V4.05C13 4.23333 13.0377 4.41267 13.113 4.588C13.1883 4.76333 13.3173 4.95067 13.5 5.15C13.8 5.51667 14.0167 5.86267 14.15 6.188C14.2833 6.51333 14.35 6.85067 14.35 7.2C14.35 7.41667 14.275 7.60433 14.125 7.763C13.975 7.92167 13.7917 8.00067 13.575 8C13.3583 7.99933 13.179 7.92 13.037 7.762C12.895 7.604 12.8243 7.41667 12.825 7.2C12.825 7 12.7877 6.81667 12.713 6.65C12.6383 6.48333 12.484 6.25833 12.25 5.975ZM14.8 5.975C14.55 5.65833 14.3627 5.34167 14.238 5.025C14.1133 4.70833 14.0507 4.38333 14.05 4.05V3.75C14.0667 3.55 14.146 3.375 14.288 3.225C14.43 3.075 14.6007 3 14.8 3C15.0167 3 15.2 3.071 15.35 3.213C15.5 3.355 15.5667 3.534 15.55 3.75V4.05C15.55 4.23333 15.5877 4.41267 15.663 4.588C15.7383 4.76333 15.8673 4.95067 16.05 5.15C16.35 5.51667 16.5667 5.86267 16.7 6.188C16.8333 6.51333 16.9 6.85067 16.9 7.2C16.9 7.41667 16.825 7.60433 16.675 7.763C16.525 7.92167 16.3417 8.00067 16.125 8C15.9083 7.99933 15.729 7.92 15.587 7.762C15.445 7.604 15.3743 7.41667 15.375 7.2C15.375 7 15.3377 6.81667 15.263 6.65C15.1883 6.48333 15.034 6.25833 14.8 5.975Z" fill="#229935"/>
</svg>
