<svg width="20" height="20" viewBox="0 0 20 20" fill="none" xmlns="http://www.w3.org/2000/svg">
<path d="M18.688 14.508C18.5399 14.4248 18.3942 14.3374 18.251 14.246C17.7399 13.9177 17.2508 13.5563 16.787 13.164C15.611 12.177 14.117 10.629 12.816 8.377C11.516 6.124 10.923 4.057 10.656 2.544C10.5481 1.9458 10.4797 1.34117 10.451 0.734C10.4433 0.564783 10.4403 0.395384 10.442 0.226C10.443 0.166 10.45 0.044 10.451 0.011C8.54415 -0.0778997 6.65196 0.383433 5 1.34C3.34688 2.29117 2.00185 3.69729 1.125 5.391L1.314 5.494C1.419 5.554 1.567 5.64 1.751 5.756C2.118 5.99 2.627 6.344 3.215 6.838C4.391 7.826 5.885 9.373 7.185 11.626C8.486 13.878 9.079 15.946 9.347 17.458C9.48 18.215 9.532 18.833 9.551 19.268C9.561 19.485 9.561 19.657 9.56 19.777V19.992C11.4633 20.0785 13.3513 19.6169 15 18.662C16.6521 17.7121 17.9967 16.3078 18.874 14.616L18.688 14.508Z" fill="#229935"/>
<path d="M8.06014 19.811C8.06192 19.6516 8.05958 19.4922 8.05314 19.333C8.02744 18.7919 7.96631 18.2531 7.87014 17.72C7.62914 16.351 7.08714 14.454 5.88814 12.377C4.68814 10.299 3.31614 8.882 2.25114 7.987C1.83799 7.63755 1.40239 7.31553 0.947144 7.023C0.788144 6.923 0.617144 6.824 0.535144 6.778C0.0741503 8.12682 -0.0924405 9.55876 0.0465926 10.9774C0.185626 12.396 0.627054 13.7684 1.34114 15.002C2.05245 16.2372 3.0202 17.3057 4.17921 18.1354C5.33822 18.9651 6.66158 19.5358 8.06014 19.811ZM11.9431 0.192001C11.9412 0.351693 11.9432 0.51141 11.9491 0.671001C11.9661 1.046 12.0121 1.598 12.1331 2.283C12.3741 3.653 12.9161 5.549 14.1151 7.627C15.3151 9.704 16.6871 11.121 17.7521 12.016C18.2841 12.463 18.7391 12.778 19.0561 12.98C19.2151 13.081 19.3861 13.18 19.4681 13.225C19.929 11.8763 20.0955 10.4446 19.9565 9.02614C19.8174 7.6077 19.3761 6.23552 18.6621 5.002C17.9508 3.76678 16.9831 2.69833 15.8241 1.86862C14.6651 1.03891 13.3417 0.4672 11.9431 0.192001Z" fill="#229935"/>
</svg>
