<svg width="18" height="19" viewBox="0 0 18 19" fill="none" xmlns="http://www.w3.org/2000/svg">
<path fill-rule="evenodd" clip-rule="evenodd" d="M17.8539 7.308C18.4539 9.719 16.9309 12.175 14.4509 12.794C14.1409 12.871 13.8299 12.916 13.5229 12.931L10.8569 17.229C10.5825 17.6717 10.1463 17.99 9.64091 18.116L8.40491 18.424C8.27746 18.4557 8.14501 18.462 8.01513 18.4426C7.88524 18.4231 7.76046 18.3782 7.64791 18.3105C7.53536 18.2429 7.43725 18.1537 7.35918 18.048C7.28111 17.9424 7.22461 17.8225 7.19291 17.695L6.91291 16.575C6.84823 16.3155 6.83623 16.0458 6.87763 15.7816C6.91902 15.5174 7.01297 15.2642 7.15391 15.037L9.59891 11.094C9.25698 10.6312 9.0096 10.1055 8.87091 9.547C8.27091 7.136 9.79291 4.68 12.2739 4.061C14.7539 3.443 17.2519 4.896 17.8539 7.308ZM13.9819 8.788C14.5339 8.651 14.8719 8.105 14.7379 7.569C14.6049 7.033 14.0499 6.71 13.4979 6.848C12.9479 6.985 12.6079 7.531 12.7419 8.067C12.8759 8.603 13.4319 8.926 13.9819 8.788Z" fill="#229935"/>
<path fill-rule="evenodd" clip-rule="evenodd" d="M8.25069 9.187C10.7307 8.568 12.2547 6.112 11.6537 3.701C11.0527 1.289 8.55369 -0.164001 6.07369 0.453999C3.59369 1.072 2.06969 3.529 2.67169 5.94C2.80988 6.49866 3.05731 7.02443 3.39969 7.487L0.954693 11.429C0.813749 11.6562 0.719802 11.9094 0.678408 12.1736C0.637013 12.4378 0.649011 12.7075 0.713693 12.967L0.993693 14.088C1.05795 14.345 1.22156 14.566 1.44861 14.7025C1.67565 14.839 1.94758 14.8798 2.20469 14.816L3.44069 14.508C3.9459 14.3822 4.38213 14.0643 4.65669 13.622L7.32269 9.324C7.62969 9.309 7.94069 9.264 8.25069 9.187ZM8.53869 3.962C8.67169 4.498 8.33369 5.044 7.78269 5.181C7.23169 5.318 6.67669 4.995 6.54269 4.46C6.40869 3.924 6.74769 3.378 7.29869 3.24C7.84969 3.103 8.40469 3.426 8.53869 3.962Z" fill="#229935"/>
</svg>
