<svg width="20" height="10" viewBox="0 0 20 10" fill="none" xmlns="http://www.w3.org/2000/svg">
<path d="M19.9852 4.99997C19.9852 6.23149 19.4966 7.41273 18.6268 8.28448C17.7569 9.15624 16.5767 9.64732 15.3452 9.64997H4.65517C3.58713 9.65239 2.55082 9.28707 1.7204 8.61541C0.889983 7.94375 0.316093 7.0067 0.0951861 5.96175C-0.125721 4.91681 0.0198221 3.82766 0.507353 2.87739C0.994884 1.92711 1.79468 1.17363 2.77232 0.743579C3.74996 0.313533 4.84584 0.233141 5.87576 0.515915C6.90569 0.798689 7.80689 1.42739 8.42787 2.29635C9.04886 3.16531 9.35179 4.22155 9.28574 5.28755C9.21968 6.35355 8.78868 7.36431 8.06517 8.14997H11.9452C11.4356 7.59425 11.0692 6.92274 10.8776 6.19356C10.6859 5.46437 10.6749 4.69947 10.8454 3.96505C11.0158 3.23063 11.3627 2.54881 11.856 1.9786C12.3492 1.40839 12.974 0.966961 13.6762 0.692519C14.3784 0.418076 15.1369 0.318886 15.8861 0.403532C16.6353 0.488178 17.3526 0.754109 17.9759 1.17831C18.5992 1.60252 19.1097 2.17222 19.4633 2.83811C19.8169 3.504 20.0029 4.24602 20.0052 4.99997H19.9852Z" fill="#229935"/>
</svg>
