<svg width="18" height="19" viewBox="0 0 18 19" fill="none" xmlns="http://www.w3.org/2000/svg">
<path fill-rule="evenodd" clip-rule="evenodd" d="M8.75 1.92442C4.05538 1.92442 0.25 5.57884 0.25 10.0872C0.25 14.5956 4.05538 18.25 8.75 18.25C13.4446 18.25 17.25 14.5956 17.25 10.0872C17.25 5.57884 13.4446 1.92442 8.75 1.92442ZM8.75 10.7151C8.57659 10.7151 8.41028 10.649 8.28766 10.5312C8.16504 10.4135 8.09615 10.2537 8.09615 10.0872V5.90116C8.09615 5.73463 8.16504 5.57492 8.28766 5.45717C8.41028 5.33941 8.57659 5.27326 8.75 5.27326C8.92341 5.27326 9.08972 5.33941 9.21234 5.45717C9.33496 5.57492 9.40385 5.73463 9.40385 5.90116V9.4593H13.109C13.2824 9.4593 13.4487 9.52546 13.5713 9.64321C13.6939 9.76097 13.7628 9.92068 13.7628 10.0872C13.7628 10.2537 13.6939 10.4135 13.5713 10.5312C13.4487 10.649 13.2824 10.7151 13.109 10.7151H8.75ZM2.12436 2.51047C2.22841 2.64369 2.3833 2.73177 2.55497 2.75532C2.72664 2.77887 2.90101 2.73597 3.03974 2.63605L4.78333 1.38023C4.92206 1.28032 5.01378 1.13157 5.0383 0.966709C5.06282 0.801851 5.01815 0.63439 4.9141 0.501165C4.81006 0.36794 4.65516 0.279864 4.48349 0.256313C4.31183 0.232762 4.13745 0.275665 3.99872 0.375584L2.25513 1.6314C2.1164 1.73132 2.02469 1.88007 2.00016 2.04492C1.97564 2.20978 2.02031 2.37724 2.12436 2.51047ZM15.3756 2.51047C15.3241 2.57643 15.2596 2.63201 15.1857 2.67402C15.1118 2.71603 15.03 2.74366 14.945 2.75532C14.86 2.76698 14.7735 2.76245 14.6903 2.74199C14.6071 2.72152 14.5289 2.68552 14.4603 2.63605L12.7167 1.38023C12.648 1.33076 12.5901 1.26878 12.5464 1.19782C12.5026 1.12687 12.4738 1.04834 12.4617 0.966709C12.4496 0.88508 12.4543 0.801953 12.4756 0.722075C12.4969 0.642197 12.5344 0.567132 12.5859 0.501165C12.6374 0.435199 12.702 0.379623 12.7758 0.337612C12.8497 0.2956 12.9315 0.267975 13.0165 0.256313C13.1015 0.244652 13.1881 0.249183 13.2712 0.269647C13.3544 0.290112 13.4326 0.326109 13.5013 0.375584L15.2449 1.6314C15.3836 1.73132 15.4753 1.88007 15.4998 2.04492C15.5244 2.20978 15.4797 2.37724 15.3756 2.51047Z" fill="#229935"/>
</svg>
